%TF.GenerationSoftware,KiCad,Pcbnew,10.0.1*%
%TF.CreationDate,2026-06-17T19:57:52+08:00*%
%TF.ProjectId,splitkb,73706c69-746b-4622-9e6b-696361645f70,rev?*%
%TF.SameCoordinates,Original*%
%TF.FileFunction,Profile,NP*%
%FSLAX46Y46*%
G04 Gerber Fmt 4.6, Leading zero omitted, Abs format (unit mm)*
G04 Created by KiCad (PCBNEW 10.0.1) date 2026-06-17 19:57:52*
%MOMM*%
%LPD*%
G01*
G04 APERTURE LIST*
%TA.AperFunction,Profile*%
%ADD10C,0.050000*%
%TD*%
G04 APERTURE END LIST*
D10*
X78125000Y-36000000D02*
X78125000Y-93000000D01*
X113375000Y-32000000D02*
X113375000Y-36000000D01*
X113375000Y-32000000D02*
X115125000Y-32000000D01*
X113375000Y-36000000D02*
X78125000Y-36000000D01*
X119625000Y-89500000D02*
X119625000Y-93000000D01*
X119625000Y-93000000D02*
X78125000Y-93000000D01*
X131375000Y-28750000D02*
X131375000Y-32000000D01*
X131375000Y-32000000D02*
X115125000Y-32000000D01*
X137625000Y-86500000D02*
X137625000Y-89500000D01*
X137625000Y-89500000D02*
X119625000Y-89500000D01*
X150125000Y-86500000D02*
X137625000Y-86500000D01*
X150125000Y-93000000D02*
X150125000Y-86500000D01*
X156375000Y-28750000D02*
X131375000Y-28750000D01*
X156375000Y-35000000D02*
X156375000Y-28750000D01*
X166875000Y-109750000D02*
X203125000Y-129250000D01*
X167625000Y-93000000D02*
X150125000Y-93000000D01*
X167625000Y-93000000D02*
X167625000Y-95250000D01*
X174375000Y-95250000D02*
X166875000Y-109750000D01*
X174375000Y-95250000D02*
X167625000Y-95250000D01*
X175125000Y-35000000D02*
X156375000Y-35000000D01*
X175125000Y-37500000D02*
X175125000Y-35000000D01*
X175125000Y-37500000D02*
X187750000Y-37500000D01*
X187750000Y-37500000D02*
G75*
G02*
X190250000Y-40000000I0J-2500000D01*
G01*
X190250000Y-40000000D02*
X190250000Y-42400000D01*
X190250000Y-42400000D02*
X210850000Y-42400000D01*
X200625000Y-103000000D02*
X208850000Y-88900000D01*
X203125000Y-129250000D02*
X213375000Y-109250000D01*
X208875000Y-66250000D02*
X208850000Y-88900000D01*
X211000000Y-42400000D02*
X210850000Y-42400000D01*
X211000000Y-42400000D02*
G75*
G02*
X213500000Y-44900000I0J-2500000D01*
G01*
X211750000Y-66250000D02*
X208875000Y-66250000D01*
X213375000Y-109250000D02*
X200625000Y-103000000D01*
X213500000Y-47450000D02*
X213500000Y-44900000D01*
X213500000Y-52750000D02*
X213500000Y-57000000D01*
X213500000Y-52750000D02*
G75*
G02*
X216500000Y-52750000I1500000J0D01*
G01*
X213500000Y-61750000D02*
X213500000Y-64500000D01*
X213500000Y-61750000D02*
G75*
G02*
X216500000Y-61750000I1500000J0D01*
G01*
X213500000Y-64500000D02*
G75*
G02*
X211750000Y-66250000I-1750000J0D01*
G01*
X216500000Y-44900000D02*
G75*
G02*
X219000000Y-42400000I2500000J0D01*
G01*
X216500000Y-47450000D02*
G75*
G02*
X213500000Y-47450000I-1500000J0D01*
G01*
X216500000Y-47450000D02*
X216500000Y-44900000D01*
X216500000Y-52750000D02*
X216500000Y-57000000D01*
X216500000Y-57000000D02*
G75*
G02*
X213500000Y-57000000I-1500000J0D01*
G01*
X216500000Y-61750000D02*
X216500000Y-64500000D01*
X216750000Y-109250000D02*
X229500000Y-103000000D01*
X218250000Y-66250000D02*
G75*
G02*
X216500000Y-64500000I0J1750000D01*
G01*
X218250000Y-66250000D02*
X221250000Y-66250000D01*
X221250000Y-66250000D02*
X221250000Y-88900000D01*
X227000000Y-129250000D02*
X216750000Y-109250000D01*
X229500000Y-103000000D02*
X221250000Y-88900000D01*
X239750000Y-40000000D02*
X239750000Y-42400000D01*
X239750000Y-40000000D02*
G75*
G02*
X242250000Y-37500000I2500000J0D01*
G01*
X239750000Y-42400000D02*
X219000000Y-42400000D01*
X254875000Y-37500000D02*
X242250000Y-37500000D01*
X254875000Y-37500000D02*
X255000000Y-37500000D01*
X255000000Y-35000000D02*
X273750000Y-35000000D01*
X255000000Y-37500000D02*
X255000000Y-35000000D01*
X255750000Y-95250000D02*
X262500000Y-95250000D01*
X255750000Y-95250000D02*
X263250000Y-109750000D01*
X262500000Y-93000000D02*
X262500000Y-95250000D01*
X262500000Y-93000000D02*
X280000000Y-93000000D01*
X263250000Y-109750000D02*
X227000000Y-129250000D01*
X273750000Y-28750000D02*
X298750000Y-28750000D01*
X273750000Y-35000000D02*
X273750000Y-28750000D01*
X280000000Y-86500000D02*
X292500000Y-86500000D01*
X280000000Y-93000000D02*
X280000000Y-86500000D01*
X292500000Y-86500000D02*
X292500000Y-89500000D01*
X292500000Y-89500000D02*
X310500000Y-89500000D01*
X298750000Y-28750000D02*
X298750000Y-32000000D01*
X298750000Y-32000000D02*
X315000000Y-32000000D01*
X310500000Y-89500000D02*
X310500000Y-93000000D01*
X310500000Y-93000000D02*
X352000000Y-93000000D01*
X316750000Y-32000000D02*
X315000000Y-32000000D01*
X316750000Y-32000000D02*
X316750000Y-36000000D01*
X316750000Y-36000000D02*
X352000000Y-36000000D01*
X352000000Y-36000000D02*
X352000000Y-93000000D01*
M02*
