%TF.GenerationSoftware,KiCad,Pcbnew,10.0.1*%
%TF.CreationDate,2026-04-30T00:11:21-04:00*%
%TF.ProjectId,splitkb,73706c69-746b-4622-9e6b-696361645f70,rev?*%
%TF.SameCoordinates,Original*%
%TF.FileFunction,Paste,Bot*%
%TF.FilePolarity,Positive*%
%FSLAX46Y46*%
G04 Gerber Fmt 4.6, Leading zero omitted, Abs format (unit mm)*
G04 Created by KiCad (PCBNEW 10.0.1) date 2026-04-30 00:11:21*
%MOMM*%
%LPD*%
G01*
G04 APERTURE LIST*
G04 Aperture macros list*
%AMRoundRect*
0 Rectangle with rounded corners*
0 $1 Rounding radius*
0 $2 $3 $4 $5 $6 $7 $8 $9 X,Y pos of 4 corners*
0 Add a 4 corners polygon primitive as box body*
4,1,4,$2,$3,$4,$5,$6,$7,$8,$9,$2,$3,0*
0 Add four circle primitives for the rounded corners*
1,1,$1+$1,$2,$3*
1,1,$1+$1,$4,$5*
1,1,$1+$1,$6,$7*
1,1,$1+$1,$8,$9*
0 Add four rect primitives between the rounded corners*
20,1,$1+$1,$2,$3,$4,$5,0*
20,1,$1+$1,$4,$5,$6,$7,0*
20,1,$1+$1,$6,$7,$8,$9,0*
20,1,$1+$1,$8,$9,$2,$3,0*%
G04 Aperture macros list end*
%ADD10RoundRect,0.250000X-0.250000X0.250000X-0.250000X-0.250000X0.250000X-0.250000X0.250000X0.250000X0*%
%ADD11R,4.600000X1.000000*%
%ADD12R,3.400000X1.600000*%
%ADD13RoundRect,0.250000X-0.337190X0.106316X-0.106316X-0.337190X0.337190X-0.106316X0.106316X0.337190X0*%
%ADD14RoundRect,0.250000X-0.106316X0.337190X-0.337190X-0.106316X0.106316X-0.337190X0.337190X0.106316X0*%
G04 APERTURE END LIST*
D10*
%TO.C,D7*%
X273500000Y-66750000D03*
X273500000Y-69250000D03*
%TD*%
%TO.C,D32*%
X131500000Y-47500000D03*
X131500000Y-50000000D03*
%TD*%
%TO.C,D40*%
X95500000Y-85000000D03*
X95500000Y-87500000D03*
%TD*%
%TO.C,D28*%
X167500000Y-83750000D03*
X167500000Y-86250000D03*
%TD*%
%TO.C,D21*%
X185500000Y-53250000D03*
X185500000Y-55750000D03*
%TD*%
%TO.C,D1*%
X255500000Y-53250000D03*
X255500000Y-55750000D03*
%TD*%
%TO.C,D36*%
X113500000Y-68000000D03*
X113500000Y-70500000D03*
%TD*%
%TO.C,D23*%
X185500000Y-87250000D03*
X185500000Y-89750000D03*
%TD*%
%TO.C,D18*%
X345500000Y-51000000D03*
X345500000Y-53500000D03*
%TD*%
%TO.C,D33*%
X131500000Y-64500000D03*
X131500000Y-67000000D03*
%TD*%
%TO.C,D29*%
X149500000Y-44000000D03*
X149500000Y-46500000D03*
%TD*%
%TO.C,D38*%
X95500000Y-51000000D03*
X95500000Y-53500000D03*
%TD*%
%TO.C,D26*%
X167500000Y-49750000D03*
X167500000Y-52250000D03*
%TD*%
%TO.C,D31*%
X149500000Y-78000000D03*
X149500000Y-80500000D03*
%TD*%
%TO.C,D22*%
X185500000Y-70250000D03*
X185500000Y-72750000D03*
%TD*%
%TO.C,D15*%
X327500000Y-51000000D03*
X327500000Y-53500000D03*
%TD*%
%TO.C,D11*%
X291500000Y-78000000D03*
X291500000Y-80500000D03*
%TD*%
%TO.C,D19*%
X345500000Y-68000000D03*
X345500000Y-70500000D03*
%TD*%
%TO.C,D35*%
X113500000Y-51000000D03*
X113500000Y-53500000D03*
%TD*%
%TO.C,D39*%
X95500000Y-68000000D03*
X95500000Y-70500000D03*
%TD*%
%TO.C,D3*%
X255500000Y-87250000D03*
X255500000Y-89750000D03*
%TD*%
%TO.C,D20*%
X345500000Y-85000000D03*
X345500000Y-87500000D03*
%TD*%
%TO.C,D27*%
X167500000Y-66750000D03*
X167500000Y-69250000D03*
%TD*%
%TO.C,D9*%
X291250000Y-44000000D03*
X291250000Y-46500000D03*
%TD*%
%TO.C,D37*%
X113500000Y-85000000D03*
X113500000Y-87500000D03*
%TD*%
%TO.C,D2*%
X255500000Y-70250000D03*
X255500000Y-72750000D03*
%TD*%
D11*
%TO.C,J2*%
X199700000Y-71000000D03*
X199700000Y-73000000D03*
D12*
X194500000Y-68600000D03*
X194500000Y-75400000D03*
%TD*%
D10*
%TO.C,D30*%
X149500000Y-61000000D03*
X149500000Y-63500000D03*
%TD*%
D13*
%TO.C,D4*%
X253103223Y-104585003D03*
X254257595Y-106802531D03*
%TD*%
D10*
%TO.C,D12*%
X309500000Y-47500000D03*
X309500000Y-50000000D03*
%TD*%
%TO.C,D10*%
X291500000Y-61250000D03*
X291500000Y-63750000D03*
%TD*%
D13*
%TO.C,D5*%
X237479863Y-113891236D03*
X238634235Y-116108764D03*
%TD*%
D10*
%TO.C,D6*%
X273500000Y-49750000D03*
X273500000Y-52250000D03*
%TD*%
%TO.C,D16*%
X327500000Y-68000000D03*
X327500000Y-70500000D03*
%TD*%
D11*
%TO.C,J1*%
X230300000Y-73000000D03*
X230300000Y-71000000D03*
D12*
X235500000Y-75400000D03*
X235500000Y-68600000D03*
%TD*%
D14*
%TO.C,D24*%
X185827186Y-109391236D03*
X184672814Y-111608764D03*
%TD*%
%TO.C,D25*%
X201327186Y-118641236D03*
X200172814Y-120858764D03*
%TD*%
D10*
%TO.C,D13*%
X309500000Y-64500000D03*
X309500000Y-67000000D03*
%TD*%
%TO.C,D17*%
X327500000Y-85000000D03*
X327500000Y-87500000D03*
%TD*%
%TO.C,D8*%
X273500000Y-84000000D03*
X273500000Y-86500000D03*
%TD*%
%TO.C,D14*%
X309500000Y-81500000D03*
X309500000Y-84000000D03*
%TD*%
%TO.C,D34*%
X131500000Y-81500000D03*
X131500000Y-84000000D03*
%TD*%
M02*
