%TF.GenerationSoftware,KiCad,Pcbnew,10.0.1*%
%TF.CreationDate,2026-04-30T00:11:21-04:00*%
%TF.ProjectId,splitkb,73706c69-746b-4622-9e6b-696361645f70,rev?*%
%TF.SameCoordinates,Original*%
%TF.FileFunction,Paste,Top*%
%TF.FilePolarity,Positive*%
%FSLAX46Y46*%
G04 Gerber Fmt 4.6, Leading zero omitted, Abs format (unit mm)*
G04 Created by KiCad (PCBNEW 10.0.1) date 2026-04-30 00:11:21*
%MOMM*%
%LPD*%
G01*
G04 APERTURE LIST*
%ADD10R,3.000000X1.600000*%
%ADD11R,2.400000X1.200000*%
%ADD12C,1.200000*%
%ADD13R,3.000000X3.000000*%
G04 APERTURE END LIST*
D10*
%TO.C,M1*%
X221385000Y-45380000D03*
X221385000Y-47920000D03*
X221385000Y-50460000D03*
X221385000Y-53000000D03*
X221385000Y-55540000D03*
X221385000Y-58080000D03*
X221385000Y-60620000D03*
X238620000Y-60620000D03*
X238620000Y-58080000D03*
X238620000Y-55540000D03*
X238620000Y-53000000D03*
X238620000Y-50460000D03*
X238620000Y-47920000D03*
X238620000Y-45380000D03*
D11*
X225400000Y-50700000D03*
X225400000Y-52800000D03*
D12*
X228730000Y-44320000D03*
X228730000Y-46860000D03*
X228730000Y-49400000D03*
X231270000Y-49400000D03*
X231270000Y-46860000D03*
X231270000Y-44320000D03*
D13*
X232500000Y-53750000D03*
%TD*%
D10*
%TO.C,M2*%
X191385000Y-45380000D03*
X191385000Y-47920000D03*
X191385000Y-50460000D03*
X191385000Y-53000000D03*
X191385000Y-55540000D03*
X191385000Y-58080000D03*
X191385000Y-60620000D03*
X208620000Y-60620000D03*
X208620000Y-58080000D03*
X208620000Y-55540000D03*
X208620000Y-53000000D03*
X208620000Y-50460000D03*
X208620000Y-47920000D03*
X208620000Y-45380000D03*
D11*
X195400000Y-50700000D03*
X195400000Y-52800000D03*
D12*
X198730000Y-44320000D03*
X198730000Y-46860000D03*
X198730000Y-49400000D03*
X201270000Y-49400000D03*
X201270000Y-46860000D03*
X201270000Y-44320000D03*
D13*
X202500000Y-53750000D03*
%TD*%
M02*
