M48
; DRILL file KiCad 10.0.1 date 2026-04-30T00:11:43
; FORMAT={-:-/ absolute / metric / decimal}
; #@! TF.CreationDate,2026-04-30T00:11:43-04:00
; #@! TF.GenerationSoftware,Kicad,Pcbnew,10.0.1
; #@! TF.FileFunction,Plated,1,2,PTH
FMAT,2
METRIC
; #@! TA.AperFunction,Plated,PTH,ViaDrill
T1C0.300
; #@! TA.AperFunction,Plated,PTH,ViaDrill
T2C0.700
; #@! TA.AperFunction,Plated,PTH,ComponentDrill
T3C0.800
; #@! TA.AperFunction,Plated,PTH,ComponentDrill
T4C1.000
; #@! TA.AperFunction,Plated,PTH,ComponentDrill
T5C1.200
; #@! TA.AperFunction,Plated,PTH,ComponentDrill
T6C1.600
; #@! TA.AperFunction,Plated,PTH,ComponentDrill
T7C2.000
; #@! TA.AperFunction,Plated,PTH,ComponentDrill
T8C2.100
%
G90
G05
T1
X91.5Y-53.75
X95.5Y-53.5
X152.25Y-80.75
X169.75Y-65.75
X169.75Y-81.25
X171.0Y-50.0
X175.0Y-63.25
X175.034Y-68.784
X176.0Y-78.75
X183.25Y-61.5
X185.5Y-51.25
X185.5Y-59.0
X188.0Y-78.25
X191.5Y-78.0
X198.5Y-59.75
X201.5Y-68.75
X225.75Y-64.0
X226.75Y-56.25
X228.25Y-74.75
X230.25Y-68.5
X232.75Y-61.25
X239.0Y-64.0
X240.0Y-76.0
X241.6Y-73.0
X244.5Y-75.75
X245.0Y-62.0
X245.25Y-49.36
X255.0Y-97.25
X255.25Y-67.75
X257.75Y-61.75
X259.0Y-60.0
X260.25Y-56.25
X260.5Y-78.75
X260.5Y-92.75
X277.5Y-81.25
X295.75Y-50.5
X296.25Y-83.0
X306.0Y-48.0
X325.5Y-66.75
X331.25Y-70.75
X336.25Y-76.0
X342.5Y-79.25
T2
X196.5Y-58.75
T3
X192.385Y-45.38
X192.385Y-47.92
X192.385Y-50.46
X192.385Y-53.0
X192.385Y-55.54
X192.385Y-58.08
X192.385Y-60.62
X207.62Y-45.38
X207.62Y-47.92
X207.62Y-50.46
X207.62Y-53.0
X207.62Y-55.54
X207.62Y-58.08
X207.62Y-60.62
X222.385Y-45.38
X222.385Y-47.92
X222.385Y-50.46
X222.385Y-53.0
X222.385Y-55.54
X222.385Y-58.08
X222.385Y-60.62
X237.62Y-45.38
X237.62Y-47.92
X237.62Y-50.46
X237.62Y-53.0
X237.62Y-55.54
X237.62Y-58.08
X237.62Y-60.62
T4
X190.7Y-85.0
X190.7Y-87.5
X190.7Y-90.0
X225.0Y-85.0
X225.0Y-87.5
X225.0Y-90.0
T5
X85.0Y-51.5
X85.0Y-68.5
X85.0Y-85.5
X90.0Y-53.6
X90.0Y-70.6
X90.0Y-87.6
X103.0Y-51.5
X103.0Y-68.5
X103.0Y-85.5
X108.0Y-53.6
X108.0Y-70.6
X108.0Y-87.6
X121.0Y-48.1
X121.0Y-65.1
X121.0Y-82.1
X126.0Y-50.2
X126.0Y-67.2
X126.0Y-84.2
X139.0Y-44.7
X139.0Y-61.7
X139.0Y-78.7
X144.0Y-46.8
X144.0Y-63.8
X144.0Y-80.8
X157.0Y-50.4
X157.0Y-67.4
X157.0Y-84.4
X162.0Y-52.5
X162.0Y-69.5
X162.0Y-86.5
X175.0Y-53.8
X175.0Y-70.8
X175.0Y-87.8
X176.247Y-105.312
X179.713Y-109.483
X180.0Y-55.9
X180.0Y-72.9
X180.0Y-89.9
X191.747Y-114.562
X195.213Y-118.733
X228.763Y-119.306
X234.167Y-118.86
X244.32Y-110.0
X245.0Y-53.8
X245.0Y-70.8
X245.0Y-87.8
X249.724Y-109.554
X250.0Y-55.9
X250.0Y-72.9
X250.0Y-89.9
X263.0Y-50.4
X263.0Y-67.4
X263.0Y-84.4
X268.0Y-52.5
X268.0Y-69.5
X268.0Y-86.5
X281.0Y-44.7
X281.0Y-61.7
X281.0Y-78.7
X286.0Y-46.8
X286.0Y-63.8
X286.0Y-80.8
X299.0Y-48.1
X299.0Y-65.1
X299.0Y-82.1
X304.0Y-50.2
X304.0Y-67.2
X304.0Y-84.2
X317.0Y-51.5
X317.0Y-68.5
X317.0Y-85.5
X322.0Y-53.6
X322.0Y-70.6
X322.0Y-87.6
X335.0Y-51.5
X335.0Y-68.5
X335.0Y-85.5
X340.0Y-53.6
X340.0Y-70.6
X340.0Y-87.6
T6
X95.0Y-42.55
X95.0Y-59.55
X95.0Y-76.55
X113.0Y-42.55
X113.0Y-59.55
X113.0Y-76.55
X131.0Y-39.15
X131.0Y-56.15
X131.0Y-73.15
X149.0Y-35.75
X149.0Y-52.75
X149.0Y-69.75
X167.0Y-41.45
X167.0Y-58.45
X167.0Y-75.45
X185.0Y-44.85
X185.0Y-61.85
X185.0Y-78.85
X189.25Y-101.991
X204.75Y-111.241
X233.5Y-106.75
X249.057Y-97.444
X255.0Y-44.85
X255.0Y-61.85
X255.0Y-78.85
X273.0Y-41.45
X273.0Y-58.45
X273.0Y-75.45
X291.0Y-35.75
X291.0Y-52.75
X291.0Y-69.75
X309.0Y-39.15
X309.0Y-56.15
X309.0Y-73.15
X327.0Y-42.55
X327.0Y-59.55
X327.0Y-76.55
X345.0Y-42.55
X345.0Y-59.55
X345.0Y-76.55
T8
X99.0Y-47.5
X99.0Y-83.5
X135.0Y-39.5
X171.0Y-44.0
X171.0Y-84.25
X197.5Y-99.75
X232.5Y-100.0
X259.0Y-43.5
X259.0Y-84.0
X295.0Y-39.75
X331.0Y-47.75
X331.0Y-81.75
T7
G00X197.95Y-81.9
M15
G01X198.45Y-81.9
M16
G05
G00X197.95Y-93.1
M15
G01X198.45Y-93.1
M16
G05
G00X232.25Y-81.9
M15
G01X232.75Y-81.9
M16
G05
G00X232.25Y-93.1
M15
G01X232.75Y-93.1
M16
G05
M30
