M48
; DRILL file KiCad 10.0.1 date 2026-04-30T00:11:43
; FORMAT={-:-/ absolute / metric / decimal}
; #@! TF.CreationDate,2026-04-30T00:11:43-04:00
; #@! TF.GenerationSoftware,Kicad,Pcbnew,10.0.1
; #@! TF.FileFunction,NonPlated,1,2,NPTH
FMAT,2
METRIC
; #@! TA.AperFunction,NonPlated,NPTH,ComponentDrill
T1C5.000
%
G90
G05
T1
X90.0Y-47.7
X90.0Y-64.7
X90.0Y-81.7
X108.0Y-47.7
X108.0Y-64.7
X108.0Y-81.7
X126.0Y-44.3
X126.0Y-61.3
X126.0Y-78.3
X144.0Y-40.9
X144.0Y-57.9
X144.0Y-74.9
X162.0Y-46.6
X162.0Y-63.6
X162.0Y-80.6
X180.0Y-50.0
X180.0Y-67.0
X180.0Y-84.0
X182.437Y-104.25
X197.937Y-113.5
X231.443Y-113.627
X247.0Y-104.321
X250.0Y-50.0
X250.0Y-67.0
X250.0Y-84.0
X268.0Y-46.6
X268.0Y-63.6
X268.0Y-80.6
X286.0Y-40.9
X286.0Y-57.9
X286.0Y-74.9
X304.0Y-44.3
X304.0Y-61.3
X304.0Y-78.3
X322.0Y-47.7
X322.0Y-64.7
X322.0Y-81.7
X340.0Y-47.7
X340.0Y-64.7
X340.0Y-81.7
M30
