%TF.GenerationSoftware,KiCad,Pcbnew,10.0.1*%
%TF.CreationDate,2026-04-30T00:11:21-04:00*%
%TF.ProjectId,splitkb,73706c69-746b-4622-9e6b-696361645f70,rev?*%
%TF.SameCoordinates,Original*%
%TF.FileFunction,Soldermask,Top*%
%TF.FilePolarity,Negative*%
%FSLAX46Y46*%
G04 Gerber Fmt 4.6, Leading zero omitted, Abs format (unit mm)*
G04 Created by KiCad (PCBNEW 10.0.1) date 2026-04-30 00:11:21*
%MOMM*%
%LPD*%
G01*
G04 APERTURE LIST*
%ADD10C,5.000000*%
%ADD11C,2.300000*%
%ADD12R,2.000000X2.000000*%
%ADD13C,2.000000*%
%ADD14R,3.000000X2.500000*%
%ADD15C,1.600000*%
%ADD16R,3.000000X1.600000*%
%ADD17R,2.400000X1.200000*%
%ADD18C,1.200000*%
%ADD19R,3.000000X3.000000*%
G04 APERTURE END LIST*
D10*
%TO.C,CH25*%
X197936940Y-113500000D03*
%TD*%
%TO.C,CH15*%
X322000000Y-47700000D03*
%TD*%
%TO.C,CH16*%
X322000000Y-64700000D03*
%TD*%
D11*
%TO.C,H2*%
X331000000Y-47750000D03*
%TD*%
%TO.C,H9*%
X197500000Y-99750000D03*
%TD*%
%TO.C,H1*%
X99000000Y-47500000D03*
%TD*%
%TO.C,H6*%
X232500000Y-100000000D03*
%TD*%
D10*
%TO.C,CH30*%
X144000000Y-57900000D03*
%TD*%
%TO.C,CH6*%
X268000000Y-46600000D03*
%TD*%
D11*
%TO.C,H7*%
X171000000Y-44000000D03*
%TD*%
D10*
%TO.C,CH29*%
X144000000Y-40900000D03*
%TD*%
%TO.C,CH28*%
X162000000Y-80600000D03*
%TD*%
%TO.C,CH21*%
X180000000Y-50000000D03*
%TD*%
%TO.C,CH13*%
X304000000Y-61300000D03*
%TD*%
%TO.C,CH34*%
X126000000Y-78300000D03*
%TD*%
D11*
%TO.C,H3*%
X99000000Y-83500000D03*
%TD*%
D10*
%TO.C,CH7*%
X268000000Y-63600000D03*
%TD*%
%TO.C,CH5*%
X231442951Y-113626849D03*
%TD*%
%TO.C,CH26*%
X162000000Y-46600000D03*
%TD*%
%TO.C,CH1*%
X250000000Y-50000000D03*
%TD*%
%TO.C,CH22*%
X180000000Y-67000000D03*
%TD*%
%TO.C,CH2*%
X250000000Y-67000000D03*
%TD*%
D11*
%TO.C,H5*%
X135000000Y-39500000D03*
%TD*%
%TO.C,H10*%
X331000000Y-81750000D03*
%TD*%
D10*
%TO.C,CH4*%
X247000000Y-104320616D03*
%TD*%
D11*
%TO.C,H4*%
X259000000Y-84000000D03*
%TD*%
%TO.C,H12*%
X295000000Y-39750000D03*
%TD*%
D10*
%TO.C,CH23*%
X180000000Y-84000000D03*
%TD*%
%TO.C,CH31*%
X144000000Y-74900000D03*
%TD*%
%TO.C,CH37*%
X108000000Y-81700000D03*
%TD*%
D12*
%TO.C,SW1*%
X225000000Y-85000000D03*
D13*
X225000000Y-90000000D03*
X225000000Y-87500000D03*
D14*
X232500000Y-81900000D03*
X232500000Y-93100000D03*
%TD*%
D10*
%TO.C,CH27*%
X162000000Y-63600000D03*
%TD*%
%TO.C,CH17*%
X322000000Y-81700000D03*
%TD*%
%TO.C,CH12*%
X304000000Y-44300000D03*
%TD*%
%TO.C,CH32*%
X126000000Y-44300000D03*
%TD*%
%TO.C,CH38*%
X90000000Y-47700000D03*
%TD*%
%TO.C,CH40*%
X90000000Y-81700000D03*
%TD*%
D15*
%TO.C,M1*%
X222385000Y-45380000D03*
D16*
X221385000Y-45380000D03*
D15*
X222385000Y-47920000D03*
D16*
X221385000Y-47920000D03*
D15*
X222385000Y-50460000D03*
D16*
X221385000Y-50460000D03*
D15*
X222385000Y-53000000D03*
D16*
X221385000Y-53000000D03*
D15*
X222385000Y-55540000D03*
D16*
X221385000Y-55540000D03*
D15*
X222385000Y-58080000D03*
D16*
X221385000Y-58080000D03*
D15*
X222385000Y-60620000D03*
D16*
X221385000Y-60620000D03*
D15*
X237620000Y-60620000D03*
D16*
X238620000Y-60620000D03*
D15*
X237620000Y-58080000D03*
D16*
X238620000Y-58080000D03*
D15*
X237620000Y-55540000D03*
D16*
X238620000Y-55540000D03*
D15*
X237620000Y-53000000D03*
D16*
X238620000Y-53000000D03*
D15*
X237620000Y-50460000D03*
D16*
X238620000Y-50460000D03*
D15*
X237620000Y-47920000D03*
D16*
X238620000Y-47920000D03*
D15*
X237620000Y-45380000D03*
D16*
X238620000Y-45380000D03*
D17*
X225400000Y-50700000D03*
X225400000Y-52800000D03*
D18*
X228730000Y-44320000D03*
X228730000Y-46860000D03*
X228730000Y-49400000D03*
X231270000Y-49400000D03*
X231270000Y-46860000D03*
X231270000Y-44320000D03*
D19*
X232500000Y-53750000D03*
%TD*%
D10*
%TO.C,CH10*%
X286000000Y-57900000D03*
%TD*%
D11*
%TO.C,H11*%
X171000000Y-84250000D03*
%TD*%
D10*
%TO.C,CH36*%
X108000000Y-64700000D03*
%TD*%
%TO.C,CH20*%
X340000000Y-81700000D03*
%TD*%
%TO.C,CH18*%
X340000000Y-47700000D03*
%TD*%
D12*
%TO.C,SW2*%
X190700000Y-85000000D03*
D13*
X190700000Y-90000000D03*
X190700000Y-87500000D03*
D14*
X198200000Y-81900000D03*
X198200000Y-93100000D03*
%TD*%
D15*
%TO.C,M2*%
X192385000Y-45380000D03*
D16*
X191385000Y-45380000D03*
D15*
X192385000Y-47920000D03*
D16*
X191385000Y-47920000D03*
D15*
X192385000Y-50460000D03*
D16*
X191385000Y-50460000D03*
D15*
X192385000Y-53000000D03*
D16*
X191385000Y-53000000D03*
D15*
X192385000Y-55540000D03*
D16*
X191385000Y-55540000D03*
D15*
X192385000Y-58080000D03*
D16*
X191385000Y-58080000D03*
D15*
X192385000Y-60620000D03*
D16*
X191385000Y-60620000D03*
D15*
X207620000Y-60620000D03*
D16*
X208620000Y-60620000D03*
D15*
X207620000Y-58080000D03*
D16*
X208620000Y-58080000D03*
D15*
X207620000Y-55540000D03*
D16*
X208620000Y-55540000D03*
D15*
X207620000Y-53000000D03*
D16*
X208620000Y-53000000D03*
D15*
X207620000Y-50460000D03*
D16*
X208620000Y-50460000D03*
D15*
X207620000Y-47920000D03*
D16*
X208620000Y-47920000D03*
D15*
X207620000Y-45380000D03*
D16*
X208620000Y-45380000D03*
D17*
X195400000Y-50700000D03*
X195400000Y-52800000D03*
D18*
X198730000Y-44320000D03*
X198730000Y-46860000D03*
X198730000Y-49400000D03*
X201270000Y-49400000D03*
X201270000Y-46860000D03*
X201270000Y-44320000D03*
D19*
X202500000Y-53750000D03*
%TD*%
D10*
%TO.C,CH33*%
X126000000Y-61300000D03*
%TD*%
%TO.C,CH39*%
X90000000Y-64700000D03*
%TD*%
%TO.C,CH35*%
X108000000Y-47700000D03*
%TD*%
%TO.C,CH24*%
X182436940Y-104250000D03*
%TD*%
%TO.C,CH11*%
X286000000Y-74900000D03*
%TD*%
%TO.C,CH8*%
X268000000Y-80600000D03*
%TD*%
%TO.C,CH19*%
X340000000Y-64700000D03*
%TD*%
%TO.C,CH3*%
X250000000Y-84000000D03*
%TD*%
%TO.C,CH14*%
X304000000Y-78300000D03*
%TD*%
D11*
%TO.C,H8*%
X259000000Y-43500000D03*
%TD*%
D10*
%TO.C,CH9*%
X286000000Y-40900000D03*
%TD*%
M02*
